<?xml version="1.0" encoding="utf-8"?>
<!-- Generator: Adobe Illustrator 15.0.0, SVG Export Plug-In . SVG Version: 6.00 Build 0)  -->
<!DOCTYPE svg PUBLIC "-//W3C//DTD SVG 1.1//EN" "http://www.w3.org/Graphics/SVG/1.1/DTD/svg11.dtd">
<svg version="1.1" id="Layer_1" xmlns="http://www.w3.org/2000/svg" xmlns:xlink="http://www.w3.org/1999/xlink" x="0px" y="0px"
	 width="3165.5px" height="400px" viewBox="-1965.5 400 3165.5 400" enable-background="new -1965.5 400 3165.5 400"
	 xml:space="preserve">
<g>
	<path fill="none" d="M973.819,737.85c-6.329,1.1-12.914,1.946-19.664,2.634C960.827,739.961,967.373,739.071,973.819,737.85z"/>
	<path fill="#4C95A5" d="M871.58,635.796c12.636-7.936,26.834-8.45,39.631-2.466l0.507-25.076l-65.268-41.771l-80.337,40.558
		l-14.858,119.53c58.3,5.727,105.694,10.069,140.771,12.45C831.729,694.187,855.799,645.687,871.58,635.796z"/>
	<path fill="#33627D" d="M935.182,655.477c0.043,0.12,0.081,0.221,0.163,0.322c16.007-15.92,40.086-17.261,57.045-6.293
		c17.506,11.329,21.079,60.188-45.115,91.381c2.313-0.09,4.605-0.223,6.881-0.403c6.75-0.688,13.335-1.534,19.664-2.634
		c51.365-9.714,96.676-39.985,153.343-67.334l-10.91-170.826l-101.154-55l-101.188,55l-2.19,108.563l-0.508,25.076
		C920.244,637.556,928.592,644.998,935.182,655.477z M1026.115,545.802h29.883v46.215h-29.883V545.802z M974.161,545.802h29.882
		v46.215h-29.882V545.802z"/>
	<rect x="974.161" y="545.802" fill="#5CB8B2" width="29.882" height="46.215"/>
	<rect x="1026.115" y="545.802" fill="#5CB8B2" width="29.883" height="46.215"/>
	<path fill="#B5BD00" d="M992.39,649.508c-16.959-10.968-41.038-9.627-57.045,6.293c-0.082-0.103-0.12-0.202-0.163-0.322
		c-6.59-10.479-14.938-17.921-23.971-22.147c-12.797-5.984-26.995-5.47-39.631,2.466c-15.781,9.893-39.852,58.393,20.444,103.225
		c23.589,1.599,41.64,2.312,53.646,1.949c0.536-0.016,1.065-0.061,1.603-0.081C1013.469,709.696,1009.896,660.837,992.39,649.508z"
		/>
	<path fill="#7A9A01" d="M2031.021,752.28c-216.998-10.761-391.912-70.521-487.966-98.554
		c-210.893-61.549-327.288-25.974-415.895,16.79c-56.667,27.349-101.978,57.62-153.343,67.334
		c-6.445,1.221-12.991,2.109-19.664,2.634c-2.274,0.182-4.569,0.313-6.881,0.403c-0.536,0.021-1.065,0.064-1.603,0.081
		c-12.008,0.361-30.059-0.353-53.646-1.949c-35.075-2.381-82.471-6.725-140.771-12.45c-45.509-4.467-97.631-9.771-155.739-15.641
		c-182.861-18.463-470.136,79.353-673.484,75.645c-191.852-3.5-363.74-42.021-474.568-59.256
		c-267.596-41.609-987.534,50.396-1605.283,86.328c0,19.826,0,198.523,0,198.523l5043.302,0.944V752.93
		C2885.48,752.93,2295.797,765.408,2031.021,752.28z"/>
</g>
</svg>
