<?xml version="1.0" encoding="utf-8"?>
<!-- Generator: Adobe Illustrator 15.0.0, SVG Export Plug-In . SVG Version: 6.00 Build 0)  -->
<!DOCTYPE svg PUBLIC "-//W3C//DTD SVG 1.1//EN" "http://www.w3.org/Graphics/SVG/1.1/DTD/svg11.dtd">
<svg version="1.1" id="Layer_1" xmlns="http://www.w3.org/2000/svg" xmlns:xlink="http://www.w3.org/1999/xlink" x="0px" y="0px"
	 width="203.5px" height="52.465px" viewBox="0 0 203.5 52.465" enable-background="new 0 0 203.5 52.465" xml:space="preserve">
<g>
	<linearGradient id="SVGID_1_" gradientUnits="userSpaceOnUse" x1="17.4009" y1="7.9429" x2="25.926" y2="43.2075">
		<stop  offset="0" style="stop-color:#8DCDC9"/>
		<stop  offset="1" style="stop-color:#FFFFFF"/>
	</linearGradient>
	<path fill="url(#SVGID_1_)" d="M17.333,38.039l1.597-12.876l8.462-4.271l6.871,4.396l0.236-11.43l5.697-3.096
		c-2.35-3.787-6.438-6.288-11.113-6.288c-6.431,0-11.797,4.796-12.954,11.139c-0.69-0.112-1.387-0.173-2.113-0.173
		c-7.284,0-13.193,6.129-13.193,13.69c0,5.49,3.111,10.224,7.603,12.414l0.05-0.07c0.068-0.071,0.133-0.136,0.204-0.201
		C10.722,39.066,12.805,38.346,17.333,38.039z"/>
	<linearGradient id="SVGID_2_" gradientUnits="userSpaceOnUse" x1="51.458" y1="-0.2881" x2="59.9816" y2="34.9705">
		<stop  offset="0" style="stop-color:#8DCDC9"/>
		<stop  offset="1" style="stop-color:#FFFFFF"/>
	</linearGradient>
	<path fill="url(#SVGID_2_)" d="M59.144,30.12c0.041-0.027,0.07-0.068,0.1-0.095c0.343-1.223,0.525-2.515,0.525-3.852
		c0-3.748-1.442-7.14-3.801-9.613l0.997,15.557C57.903,31.321,58.659,30.628,59.144,30.12z"/>
	<path fill="#4C95A5" d="M30.036,28.19c1.334-0.837,2.828-0.89,4.174-0.261l0.053-2.64l-6.871-4.396l-8.462,4.271l-1.597,12.876
		c0.286-0.018,0.578-0.03,0.885-0.053c3.229-0.166,9.374,0.944,14.935,1.741C25.591,34.833,28.297,29.279,30.036,28.19z"/>
	<path fill="#33627D" d="M34.262,25.289l-0.053,2.64c0.957,0.445,1.83,1.229,2.517,2.333c0.006,0.015,0.018,0.021,0.027,0.036
		c1.682-1.678,4.214-1.82,6.003-0.664c1.921,1.245,2.261,6.806-5.72,10.052c-0.407,0.166-0.756,0.301-1.068,0.425
		c2.438,0.289,4.64,0.46,6.216,0.348c4.347-0.331,11.009-5.129,14.78-8.341l-0.997-15.557l-0.166-2.702l-10.66-5.791l-4.946,2.694
		l-5.697,3.096L34.262,25.289z M43.981,23.581h-3.149v-4.865h3.149V23.581z M49.45,23.581h-3.146v-4.865h3.146V23.581z"/>
	<rect x="40.832" y="18.716" fill="#5CB8B2" width="3.149" height="4.865"/>
	<rect x="46.305" y="18.716" fill="#5CB8B2" width="3.146" height="4.865"/>
	<path fill="#B5BD00" d="M42.757,29.633c-1.789-1.156-4.321-1.014-6.003,0.664c-0.01-0.015-0.021-0.021-0.027-0.036
		c-0.688-1.104-1.561-1.888-2.517-2.333c-1.346-0.629-2.839-0.576-4.174,0.261c-1.738,1.089-4.445,6.644,3.117,11.537
		c0.962,0.142,1.895,0.266,2.816,0.384c0.313-0.124,0.661-0.26,1.068-0.425C45.018,36.439,44.678,30.878,42.757,29.633z"/>
	<path fill="#7A9A01" d="M56.965,32.118c-3.771,3.211-10.434,8.01-14.78,8.341c-1.576,0.112-3.778-0.059-6.216-0.348
		c-0.921-0.118-1.854-0.242-2.816-0.384c-5.561-0.797-11.706-1.907-14.935-1.741c-0.307,0.023-0.599,0.035-0.885,0.053
		c-4.528,0.307-6.611,1.027-8.654,3.234c-0.059,0.065-0.118,0.13-0.189,0.201c14.014-2.243,25.542,9.238,38.517,3.595
		c8.786-3.825,11.605-12.019,12.36-15.165c-0.053,0.065-0.145,0.145-0.224,0.215C58.659,30.628,57.903,31.321,56.965,32.118z"/>
</g>
<g>
	<path fill="#33627D" d="M77.566,27.917c0,0.201-0.156,0.267-0.225,0.289c-0.555,0.223-2.11,0.579-3.424,0.579
		c-4.155,0-5.244-1.957-5.244-6.113c0-4.179,1.089-6.136,5.244-6.136c1.313,0,2.869,0.355,3.424,0.578
		c0.068,0.022,0.225,0.066,0.225,0.267c0,0.044-0.023,0.155-0.023,0.155l-0.156,0.733c-0.045,0.201-0.109,0.267-0.266,0.267
		c-0.068,0-0.133-0.022-0.133-0.022l-0.157-0.044c-0.511-0.157-1.688-0.49-2.821-0.49c-2.668,0-3.513,1.135-3.513,4.669
		c0,3.557,0.845,4.69,3.513,4.69c1.178,0,2.512-0.356,2.979-0.49c0,0,0.088-0.022,0.133-0.022c0.156,0,0.221,0.068,0.266,0.245
		l0.156,0.711C77.543,27.784,77.566,27.873,77.566,27.917z"/>
	<path fill="#33627D" d="M89.82,23.516c-0.023,0.111-0.177,0.289-0.289,0.289h-8.157c0,1.222,0.221,1.911,0.69,2.49
		c0.644,0.822,1.732,1.067,3.288,1.067c1.378,0,2.178-0.245,3.223-0.556c0,0,0.133-0.044,0.201-0.044c0.088,0,0.156,0.044,0.2,0.179
		l0.245,0.866l0.021,0.088c0,0.112-0.089,0.179-0.245,0.245c-0.888,0.378-2.355,0.645-3.822,0.645c-4.356,0-5.646-2.023-5.646-6.113
		c0-3.757,0.755-6.136,5.156-6.136c2.334,0,3.689,0.711,4.424,1.979c0.578,1.001,0.711,2.379,0.711,3.913V23.516z M87.687,19.827
		c-0.378-1.422-1.245-1.89-3.046-1.89c-1.776,0-2.645,0.468-3.021,1.89c-0.222,0.822-0.245,1.688-0.267,2.512l6.624-0.022
		C87.952,21.471,87.908,20.649,87.687,19.827z"/>
	<path fill="#33627D" d="M102.144,28.495h-1.09c-0.2,0-0.333-0.133-0.333-0.333v-8.224c0-1.467-0.558-1.979-2.113-1.979
		c-2.066,0-4.156,0.623-4.156,0.623v9.581c0,0.201-0.111,0.333-0.313,0.333h-1.109c-0.201,0-0.334-0.133-0.334-0.333v-9.225
		c0-0.889,0.045-1.289,1.154-1.667c1.157-0.4,3.379-0.733,4.802-0.733c2.645,0,3.825,0.823,3.825,3.201v8.425
		C102.477,28.362,102.341,28.495,102.144,28.495z"/>
	<path fill="#33627D" d="M111.842,28.14c0,0.088-0.089,0.201-0.177,0.223c-0.487,0.155-1.443,0.422-2.713,0.422
		c-2.199,0-3.243-0.957-3.243-3.09V13.492c0-0.179,0.108-0.245,0.266-0.29l1.201-0.312h0.021c0.156,0,0.269,0.111,0.269,0.29v3.645
		h3.733c0.201,0,0.334,0.134,0.334,0.333v0.755c0,0.201-0.133,0.333-0.334,0.333h-3.733v7.625c0,1.222,0.667,1.489,1.821,1.489
		c0.69,0,1.578-0.179,2.045-0.289h0.068c0.108,0,0.2,0.044,0.244,0.201l0.198,0.822V28.14z"/>
	<path fill="#33627D" d="M123.65,23.516c-0.023,0.111-0.177,0.289-0.289,0.289h-8.158c0,1.222,0.222,1.911,0.69,2.49
		c0.644,0.822,1.733,1.067,3.288,1.067c1.379,0,2.179-0.245,3.224-0.556c0,0,0.133-0.044,0.2-0.044c0.089,0,0.156,0.044,0.201,0.179
		l0.245,0.866l0.021,0.088c0,0.112-0.089,0.179-0.245,0.245c-0.889,0.378-2.355,0.645-3.822,0.645c-4.356,0-5.646-2.023-5.646-6.113
		c0-3.757,0.756-6.136,5.156-6.136c2.335,0,3.689,0.711,4.425,1.979c0.578,1.001,0.711,2.379,0.711,3.913V23.516z M121.517,19.827
		c-0.378-1.422-1.245-1.89-3.046-1.89c-1.776,0-2.645,0.468-3.022,1.89c-0.222,0.822-0.245,1.688-0.266,2.512l6.623-0.022
		C121.782,21.471,121.738,20.649,121.517,19.827z"/>
	<path fill="#33627D" d="M126.835,28.495c-0.197,0-0.31-0.133-0.31-0.333v-9.269c0-0.979,0.2-1.268,0.956-1.623
		c0.977-0.444,2.979-0.733,4.044-0.733h0.558c0.109,0,0.31,0.044,0.31,0.333v0.956c0,0.155-0.044,0.267-0.2,0.267
		c-1.467,0-2.665,0.111-3.911,0.422v9.647c0,0.201-0.112,0.333-0.313,0.333H126.835z"/>
	<path fill="#7A9A01" d="M142.489,27.917c0,0.201-0.156,0.267-0.224,0.289c-0.555,0.223-2.11,0.579-3.424,0.579
		c-4.156,0-5.245-1.957-5.245-6.113c0-4.179,1.089-6.136,5.245-6.136c1.313,0,2.869,0.355,3.424,0.578
		c0.067,0.022,0.224,0.066,0.224,0.267c0,0.044-0.023,0.155-0.023,0.155l-0.156,0.733c-0.044,0.201-0.109,0.267-0.266,0.267
		c-0.067,0-0.133-0.022-0.133-0.022l-0.156-0.044c-0.511-0.157-1.688-0.49-2.821-0.49c-2.669,0-3.513,1.135-3.513,4.669
		c0,3.557,0.844,4.69,3.513,4.69c1.177,0,2.512-0.356,2.978-0.49c0,0,0.089-0.022,0.133-0.022c0.156,0,0.222,0.068,0.266,0.245
		l0.156,0.711C142.466,27.784,142.489,27.873,142.489,27.917z"/>
	<path fill="#7A9A01" d="M152.434,28.451c-0.646,0.155-1.712,0.333-2.89,0.333c-1.913,0-5.092-0.066-5.092-3.669
		c0-2.978,1.645-3.133,3.846-3.488l4.2-0.689v-1.045c0-0.711-0.021-1.29-0.8-1.579c-0.422-0.177-1.045-0.266-2.021-0.266
		c-1.712,0-3.202,0.422-4.111,0.644c-0.045,0-0.092,0.022-0.136,0.022c-0.089,0-0.178-0.044-0.222-0.177l-0.201-1v-0.044
		c0-0.177,0.157-0.245,0.225-0.267c0.712-0.266,2.621-0.689,4.646-0.689c1.576,0,2.601,0.223,3.244,0.578
		c1.133,0.601,1.157,1.646,1.157,2.69v6.379C154.278,27.74,153.965,28.095,152.434,28.451z M152.521,22.338l-4.336,0.733
		c-0.977,0.177-1.909,0.333-1.909,1.956c0,2.222,1.821,2.379,3.288,2.379c0.979,0,2.024-0.133,2.957-0.444V22.338z"/>
	<path fill="#7A9A01" d="M174.979,28.495h-1.089c-0.222,0-0.354-0.133-0.354-0.333v-8.224c0-1.467-0.534-1.979-2.09-1.979
		c-2.065,0-4.179,0.623-4.179,0.623v9.581c0,0.223-0.089,0.333-0.311,0.333h-1.089c-0.2,0-0.333-0.133-0.333-0.333v-8.224
		c0-1.467-0.559-1.979-2.113-1.979c-2.066,0-4.156,0.623-4.156,0.623v9.581c0,0.201-0.112,0.333-0.313,0.333h-1.11
		c-0.2,0-0.333-0.133-0.333-0.333v-9.225c0-0.889,0.044-1.289,1.154-1.667c1.156-0.4,3.379-0.733,4.802-0.733
		c1.402,0,2.402,0.267,3.022,0.845c1.245-0.49,3.647-0.845,5.003-0.845c2.645,0,3.821,0.823,3.821,3.201v8.425
		C175.313,28.362,175.18,28.495,174.979,28.495z"/>
	<path fill="#7A9A01" d="M183.421,28.785c-1.334,0-2.58-0.201-3.38-0.422l0.245,1.312v2.91c0,0.177-0.112,0.248-0.269,0.289
		l-1.198,0.29h-0.068c-0.156,0-0.221-0.153-0.221-0.29V18.981c0-0.911,0.044-1.311,1.153-1.712c1.157-0.422,2.869-0.733,4.315-0.733
		c3.999,0,4.646,2.489,4.646,6.136C188.645,26.984,187.464,28.785,183.421,28.785z M183.53,17.98c-1.335,0-3.244,0.534-3.244,0.534
		v8.469c0,0,1.222,0.422,3.111,0.422c2.556,0,3.423-1.178,3.423-4.69C186.82,18.493,185.688,17.98,183.53,17.98z"/>
	<path fill="#7A9A01" d="M196.254,28.785c-4.646,0-5.201-2.779-5.201-6.113c0-3.357,0.556-6.136,5.201-6.136
		c4.669,0,5.203,2.779,5.203,6.136C201.457,26.006,200.923,28.785,196.254,28.785z M196.254,17.958
		c-3.224,0-3.356,1.891-3.356,4.713c0,2.801,0.133,4.69,3.356,4.69c3.223,0,3.358-1.889,3.358-4.69
		C199.612,19.849,199.477,17.958,196.254,17.958z"/>
</g>
</svg>
