<?xml version="1.0" encoding="utf-8"?>
<!-- Generator: Adobe Illustrator 15.0.0, SVG Export Plug-In . SVG Version: 6.00 Build 0)  -->
<!DOCTYPE svg PUBLIC "-//W3C//DTD SVG 1.1//EN" "http://www.w3.org/Graphics/SVG/1.1/DTD/svg11.dtd">
<svg version="1.1" xmlns="http://www.w3.org/2000/svg" xmlns:xlink="http://www.w3.org/1999/xlink" x="0px" y="0px"
	 width="205.03px" height="45px" viewBox="0 0 205.03 45" enable-background="new 0 0 205.03 45" xml:space="preserve">
<g id="Layer_1">
	<g>
		<linearGradient id="SVGID_1_" gradientUnits="userSpaceOnUse" x1="19.8716" y1="4.2935" x2="28.4096" y2="39.6116">
			<stop  offset="0" style="stop-color:#8DCDC9"/>
			<stop  offset="1" style="stop-color:#FFFFFF"/>
		</linearGradient>
		<path fill="url(#SVGID_1_)" d="M19.804,34.434l1.599-12.896l8.475-4.277l6.881,4.403l0.237-11.447L42.7,7.116
			c-2.353-3.792-6.447-6.298-11.129-6.298c-6.441,0-11.815,4.803-12.974,11.155c-0.692-0.112-1.389-0.173-2.116-0.173
			c-7.295,0-13.213,6.139-13.213,13.712c0,5.498,3.116,10.239,7.615,12.433l0.05-0.071c0.068-0.071,0.133-0.136,0.204-0.201
			C13.183,35.462,15.269,34.74,19.804,34.434z"/>
		<linearGradient id="SVGID_2_" gradientUnits="userSpaceOnUse" x1="53.9805" y1="-3.9541" x2="62.5176" y2="31.3605">
			<stop  offset="0" style="stop-color:#8DCDC9"/>
			<stop  offset="1" style="stop-color:#FFFFFF"/>
		</linearGradient>
		<path fill="url(#SVGID_2_)" d="M61.678,26.503c0.041-0.027,0.071-0.068,0.1-0.095c0.343-1.226,0.526-2.519,0.526-3.857
			c0-3.755-1.445-7.15-3.807-9.628l0.999,15.581C60.436,27.706,61.193,27.011,61.678,26.503z"/>
		<path fill="#4C95A5" d="M32.526,24.569c1.336-0.838,2.832-0.892,4.18-0.262l0.053-2.644l-6.881-4.403l-8.475,4.277l-1.599,12.896
			c0.287-0.018,0.579-0.03,0.887-0.054c3.234-0.165,9.388,0.946,14.957,1.744C28.074,31.224,30.785,25.66,32.526,24.569z"/>
		<path fill="#33627D" d="M36.759,21.664l-0.053,2.644c0.958,0.446,1.833,1.231,2.521,2.337c0.006,0.015,0.018,0.021,0.027,0.035
			c1.685-1.681,4.221-1.822,6.012-0.665c1.924,1.247,2.264,6.816-5.729,10.068c-0.408,0.165-0.757,0.301-1.07,0.426
			c2.442,0.289,4.647,0.461,6.226,0.349c4.354-0.331,11.025-5.138,14.803-8.354l-0.999-15.581l-0.166-2.706l-10.677-5.8L42.7,7.116
			l-5.705,3.101L36.759,21.664z M46.493,19.954h-3.154v-4.873h3.154V19.954z M51.97,19.954h-3.151v-4.873h3.151V19.954z"/>
		<rect x="43.339" y="15.081" fill="#5CB8B2" width="3.154" height="4.873"/>
		<rect x="48.819" y="15.081" fill="#5CB8B2" width="3.151" height="4.873"/>
		<path fill="#B5BD00" d="M45.266,26.015c-1.792-1.157-4.328-1.016-6.012,0.665c-0.009-0.015-0.021-0.021-0.027-0.035
			c-0.688-1.105-1.563-1.891-2.521-2.337c-1.348-0.63-2.843-0.576-4.18,0.262c-1.741,1.091-4.452,6.654,3.122,11.555
			c0.964,0.142,1.898,0.267,2.82,0.385c0.313-0.125,0.662-0.261,1.07-0.426C47.53,32.831,47.19,27.262,45.266,26.015z"/>
		<path fill="#7A9A01" d="M59.496,28.504c-3.778,3.216-10.449,8.022-14.803,8.354c-1.579,0.112-3.784-0.06-6.226-0.349
			c-0.922-0.118-1.856-0.243-2.82-0.385c-5.569-0.798-11.723-1.909-14.957-1.744c-0.308,0.023-0.6,0.036-0.887,0.054
			c-4.535,0.307-6.621,1.028-8.667,3.239c-0.059,0.065-0.118,0.13-0.189,0.201c14.035-2.246,25.581,9.252,38.575,3.601
			c8.8-3.831,11.623-12.037,12.38-15.188c-0.053,0.064-0.145,0.145-0.225,0.216C61.193,27.011,60.436,27.706,59.496,28.504z"/>
	</g>
	<g>
		<path fill="#33627D" d="M80.128,24.296c0,0.201-0.157,0.268-0.225,0.29c-0.556,0.223-2.113,0.579-3.429,0.579
			c-4.162,0-5.253-1.96-5.253-6.122c0-4.186,1.091-6.146,5.253-6.146c1.315,0,2.873,0.356,3.429,0.58
			c0.068,0.021,0.225,0.066,0.225,0.268c0,0.044-0.023,0.154-0.023,0.154l-0.157,0.735c-0.044,0.2-0.109,0.268-0.266,0.268
			c-0.068,0-0.133-0.022-0.133-0.022l-0.157-0.045c-0.512-0.156-1.691-0.49-2.826-0.49c-2.672,0-3.518,1.137-3.518,4.677
			c0,3.562,0.846,4.696,3.518,4.696c1.18,0,2.516-0.355,2.983-0.49c0,0,0.088-0.022,0.133-0.022c0.157,0,0.222,0.068,0.266,0.245
			l0.157,0.713C80.105,24.163,80.128,24.252,80.128,24.296z"/>
		<path fill="#33627D" d="M92.401,19.889c-0.023,0.11-0.177,0.29-0.29,0.29h-8.17c0,1.224,0.222,1.913,0.691,2.493
			c0.645,0.823,1.735,1.068,3.293,1.068c1.38,0,2.182-0.245,3.228-0.558c0,0,0.133-0.044,0.201-0.044
			c0.089,0,0.157,0.044,0.201,0.179l0.246,0.868l0.021,0.088c0,0.112-0.089,0.179-0.246,0.246c-0.89,0.378-2.358,0.646-3.828,0.646
			c-4.363,0-5.655-2.026-5.655-6.122c0-3.763,0.757-6.146,5.164-6.146c2.338,0,3.695,0.713,4.431,1.982
			c0.58,1.002,0.712,2.383,0.712,3.918V19.889z M90.265,16.193c-0.378-1.425-1.248-1.893-3.051-1.893
			c-1.779,0-2.648,0.468-3.027,1.893c-0.222,0.823-0.245,1.691-0.266,2.516l6.633-0.021C90.53,17.84,90.486,17.017,90.265,16.193z"
			/>
		<path fill="#33627D" d="M104.743,24.875h-1.091c-0.201,0-0.334-0.133-0.334-0.334v-8.236c0-1.47-0.559-1.982-2.117-1.982
			c-2.069,0-4.162,0.624-4.162,0.624v9.595c0,0.201-0.112,0.334-0.313,0.334h-1.111c-0.201,0-0.334-0.133-0.334-0.334v-9.238
			c0-0.89,0.044-1.291,1.156-1.67c1.159-0.401,3.384-0.735,4.809-0.735c2.648,0,3.831,0.825,3.831,3.206v8.438
			C105.077,24.742,104.94,24.875,104.743,24.875z"/>
		<path fill="#33627D" d="M114.456,24.52c0,0.088-0.089,0.2-0.178,0.223c-0.488,0.155-1.445,0.423-2.716,0.423
			c-2.202,0-3.249-0.958-3.249-3.095V9.849c0-0.179,0.109-0.245,0.266-0.29l1.203-0.312h0.021c0.157,0,0.269,0.111,0.269,0.29v3.65
			h3.739c0.201,0,0.334,0.135,0.334,0.334v0.757c0,0.201-0.133,0.334-0.334,0.334h-3.739v7.637c0,1.224,0.668,1.491,1.824,1.491
			c0.692,0,1.582-0.179,2.048-0.29h0.068c0.109,0,0.201,0.045,0.246,0.201l0.198,0.823V24.52z"/>
		<path fill="#33627D" d="M126.283,19.889c-0.024,0.11-0.178,0.29-0.29,0.29h-8.17c0,1.224,0.222,1.913,0.691,2.493
			c0.645,0.823,1.735,1.068,3.293,1.068c1.38,0,2.182-0.245,3.228-0.558c0,0,0.133-0.044,0.201-0.044
			c0.088,0,0.156,0.044,0.201,0.179l0.246,0.868l0.021,0.088c0,0.112-0.088,0.179-0.245,0.246c-0.89,0.378-2.359,0.646-3.828,0.646
			c-4.363,0-5.655-2.026-5.655-6.122c0-3.763,0.757-6.146,5.164-6.146c2.338,0,3.695,0.713,4.431,1.982
			c0.579,1.002,0.712,2.383,0.712,3.918V19.889z M124.146,16.193c-0.378-1.425-1.248-1.893-3.051-1.893
			c-1.779,0-2.648,0.468-3.027,1.893c-0.222,0.823-0.245,1.691-0.266,2.516l6.633-0.021
			C124.412,17.84,124.367,17.017,124.146,16.193z"/>
		<path fill="#33627D" d="M129.472,24.875c-0.198,0-0.311-0.133-0.311-0.334v-9.283c0-0.979,0.201-1.27,0.958-1.625
			c0.979-0.445,2.983-0.735,4.05-0.735h0.559c0.109,0,0.311,0.045,0.311,0.334v0.958c0,0.155-0.044,0.268-0.201,0.268
			c-1.469,0-2.669,0.111-3.917,0.423v9.661c0,0.201-0.112,0.334-0.313,0.334H129.472z"/>
		<path fill="#7A9A01" d="M145.15,24.296c0,0.201-0.157,0.268-0.225,0.29c-0.556,0.223-2.114,0.579-3.429,0.579
			c-4.162,0-5.252-1.96-5.252-6.122c0-4.186,1.091-6.146,5.252-6.146c1.315,0,2.874,0.356,3.429,0.58
			c0.068,0.021,0.225,0.066,0.225,0.268c0,0.044-0.024,0.154-0.024,0.154l-0.156,0.735c-0.044,0.2-0.109,0.268-0.266,0.268
			c-0.068,0-0.133-0.022-0.133-0.022l-0.157-0.045c-0.511-0.156-1.69-0.49-2.826-0.49c-2.672,0-3.518,1.137-3.518,4.677
			c0,3.562,0.845,4.696,3.518,4.696c1.179,0,2.516-0.355,2.982-0.49c0,0,0.089-0.022,0.133-0.022c0.157,0,0.222,0.068,0.266,0.245
			l0.156,0.713C145.126,24.163,145.15,24.252,145.15,24.296z"/>
		<path fill="#7A9A01" d="M155.109,24.831c-0.647,0.155-1.714,0.334-2.894,0.334c-1.915,0-5.099-0.066-5.099-3.675
			c0-2.982,1.646-3.138,3.852-3.493l4.206-0.69V16.26c0-0.712-0.021-1.291-0.801-1.581c-0.423-0.178-1.046-0.266-2.025-0.266
			c-1.714,0-3.208,0.422-4.118,0.644c-0.044,0-0.092,0.022-0.136,0.022c-0.088,0-0.177-0.044-0.222-0.177l-0.201-1.003v-0.044
			c0-0.178,0.157-0.245,0.225-0.268c0.712-0.266,2.625-0.69,4.652-0.69c1.579,0,2.604,0.224,3.249,0.58
			c1.135,0.602,1.159,1.647,1.159,2.694v6.389C156.957,24.118,156.643,24.475,155.109,24.831z M155.198,18.709l-4.342,0.734
			c-0.979,0.178-1.913,0.334-1.913,1.959c0,2.226,1.824,2.382,3.293,2.382c0.981,0,2.028-0.133,2.962-0.444V18.709z"/>
		<path fill="#7A9A01" d="M177.689,24.875h-1.091c-0.222,0-0.354-0.133-0.354-0.334v-8.236c0-1.47-0.535-1.982-2.093-1.982
			c-2.069,0-4.186,0.624-4.186,0.624v9.595c0,0.224-0.088,0.334-0.31,0.334h-1.091c-0.201,0-0.334-0.133-0.334-0.334v-8.236
			c0-1.47-0.559-1.982-2.117-1.982c-2.069,0-4.162,0.624-4.162,0.624v9.595c0,0.201-0.112,0.334-0.313,0.334h-1.111
			c-0.201,0-0.334-0.133-0.334-0.334v-9.238c0-0.89,0.044-1.291,1.156-1.67c1.159-0.401,3.385-0.735,4.81-0.735
			c1.404,0,2.406,0.268,3.027,0.848c1.248-0.491,3.654-0.848,5.01-0.848c2.648,0,3.828,0.825,3.828,3.206v8.438
			C178.023,24.742,177.891,24.875,177.689,24.875z"/>
		<path fill="#7A9A01" d="M186.144,25.165c-1.336,0-2.584-0.201-3.385-0.423l0.245,1.314v2.914c0,0.178-0.112,0.248-0.269,0.29
			l-1.2,0.289h-0.068c-0.156,0-0.222-0.153-0.222-0.289V15.347c0-0.912,0.045-1.313,1.156-1.714
			c1.158-0.423,2.873-0.735,4.321-0.735c4.005,0,4.652,2.494,4.652,6.146C191.375,23.362,190.193,25.165,186.144,25.165z
			 M186.253,14.345c-1.336,0-3.249,0.535-3.249,0.535v8.482c0,0,1.224,0.422,3.115,0.422c2.561,0,3.43-1.179,3.43-4.696
			C189.549,14.857,188.413,14.345,186.253,14.345z"/>
		<path fill="#7A9A01" d="M198.996,25.165c-4.653,0-5.209-2.783-5.209-6.122c0-3.362,0.556-6.146,5.209-6.146
			c4.676,0,5.211,2.783,5.211,6.146C204.207,22.382,203.672,25.165,198.996,25.165z M198.996,14.322
			c-3.229,0-3.361,1.894-3.361,4.721c0,2.806,0.133,4.697,3.361,4.697c3.228,0,3.363-1.892,3.363-4.697
			C202.359,16.216,202.224,14.322,198.996,14.322z"/>
	</g>
</g>
<g id="Layer_2">
	<g>
		<path fill="#33627D" d="M71.959,31.788h0.865v2.674h2.964v-2.674h0.865v6.291h-0.865V35.22h-2.964v2.859h-0.865V31.788z"/>
		<path fill="#33627D" d="M79.86,31.778h0.803l2.32,6.301h-0.909l-0.582-1.668h-2.515l-0.6,1.668h-0.865L79.86,31.778z
			 M81.245,35.679l-0.997-2.858h-0.009l-1.014,2.858H81.245z"/>
		<path fill="#33627D" d="M83.844,31.778H84.7l3.07,4.809h0.018v-4.809h0.83v6.301H87.77l-3.088-4.854h-0.017v4.854h-0.82V31.778z"
			/>
		<path fill="#33627D" d="M89.557,36.658l0.785-0.3c0.248,0.68,0.865,1.066,1.667,1.066c0.768,0,1.412-0.352,1.412-1.031
			c0-0.6-0.406-0.855-0.935-1.015l-1.147-0.31c-0.865-0.237-1.429-0.67-1.429-1.641c0-1.085,0.909-1.756,2.073-1.756
			c0.997,0,1.862,0.389,2.171,1.244l-0.75,0.301c-0.265-0.539-0.758-0.813-1.438-0.813c-0.6,0-1.209,0.291-1.209,0.953
			c0,0.477,0.344,0.775,1.006,0.961l1.156,0.318c0.741,0.194,1.35,0.644,1.35,1.686c0,1.102-0.936,1.861-2.294,1.861
			C90.828,38.185,89.857,37.673,89.557,36.658z"/>
		<path fill="#33627D" d="M97.458,31.788h0.865v3.167l2.875-3.167h1.05l-2.285,2.471l2.471,3.82h-1.006l-2.039-3.186l-1.066,1.094
			v2.092h-0.865V31.788z"/>
		<path fill="#33627D" d="M103.215,31.778h0.855l3.07,4.809h0.018v-4.809h0.829v6.301h-0.847l-3.088-4.854h-0.018v4.854h-0.82
			V31.778z"/>
		<path fill="#33627D" d="M109.289,35.987v-4.199h0.865v4.066c0,1.006,0.583,1.545,1.517,1.545c0.961,0,1.518-0.539,1.5-1.526
			v-4.085h0.865v4.138c0.009,1.421-0.962,2.259-2.382,2.259C110.356,38.185,109.289,37.496,109.289,35.987z"/>
		<path fill="#33627D" d="M115.338,31.788h2.373c1.323,0,2.338,0.812,2.338,2.17v1.906c0,1.402-1.094,2.215-2.33,2.215h-2.382
			V31.788z M117.675,37.311c0.838,0,1.509-0.503,1.509-1.394v-1.984c0-0.83-0.618-1.387-1.536-1.387h-1.446v4.765H117.675z"/>
		<path fill="#33627D" d="M120.831,36.658l0.785-0.3c0.248,0.68,0.865,1.066,1.667,1.066c0.768,0,1.412-0.352,1.412-1.031
			c0-0.6-0.406-0.855-0.935-1.015l-1.147-0.31c-0.865-0.237-1.429-0.67-1.429-1.641c0-1.085,0.909-1.756,2.074-1.756
			c0.997,0,1.861,0.389,2.17,1.244l-0.75,0.301c-0.265-0.539-0.758-0.813-1.438-0.813c-0.6,0-1.209,0.291-1.209,0.953
			c0,0.477,0.345,0.775,1.006,0.961l1.155,0.318c0.742,0.194,1.35,0.644,1.35,1.686c0,1.102-0.935,1.861-2.294,1.861
			C122.101,38.185,121.13,37.673,120.831,36.658z"/>
		<path fill="#33627D" d="M126.579,31.778h4.147v0.768h-3.282v1.916h2.805v0.758h-2.805v2.091h3.308v0.769h-4.173V31.778z"/>
		<path fill="#33627D" d="M131.913,31.778h0.855l3.07,4.809h0.019v-4.809h0.829v6.301h-0.848l-3.088-4.854h-0.017v4.854h-0.82
			V31.778z"/>
		<path fill="#33627D" d="M137.626,36.658l0.785-0.3c0.248,0.68,0.865,1.066,1.668,1.066c0.768,0,1.412-0.352,1.412-1.031
			c0-0.6-0.406-0.855-0.936-1.015l-1.147-0.31c-0.865-0.237-1.429-0.67-1.429-1.641c0-1.085,0.909-1.756,2.074-1.756
			c0.997,0,1.862,0.389,2.171,1.244l-0.75,0.301c-0.265-0.539-0.759-0.813-1.438-0.813c-0.6,0-1.209,0.291-1.209,0.953
			c0,0.477,0.345,0.775,1.006,0.961l1.156,0.318c0.741,0.194,1.349,0.644,1.349,1.686c0,1.102-0.935,1.861-2.294,1.861
			C138.896,38.185,137.926,37.673,137.626,36.658z"/>
		<path fill="#33627D" d="M145.526,31.788h2.356c1.217,0,2.063,0.723,2.063,1.914c0,1.023-0.705,1.932-2.099,1.932h-1.456v2.445
			h-0.865V31.788z M147.679,34.902c0.865,0,1.411-0.397,1.411-1.2c0-0.794-0.556-1.182-1.323-1.182h-1.376v2.382H147.679z"/>
		<path fill="#33627D" d="M150.931,31.788h0.865v5.522h3.185v0.769h-4.049V31.788z"/>
		<path fill="#33627D" d="M157.942,31.778h0.803l2.32,6.301h-0.909l-0.582-1.668h-2.515l-0.6,1.668h-0.865L157.942,31.778z
			 M159.327,35.679l-0.997-2.858h-0.009l-1.014,2.858H159.327z"/>
		<path fill="#33627D" d="M161.926,31.788h2.373c1.323,0,2.338,0.812,2.338,2.17v1.906c0,1.402-1.093,2.215-2.329,2.215h-2.382
			V31.788z M164.264,37.311c0.838,0,1.508-0.503,1.508-1.394v-1.984c0-0.83-0.618-1.387-1.535-1.387h-1.447v4.765H164.264z"/>
		<path fill="#33627D" d="M167.418,36.658l0.785-0.3c0.248,0.68,0.864,1.066,1.668,1.066c0.768,0,1.412-0.352,1.412-1.031
			c0-0.6-0.406-0.855-0.936-1.015l-1.148-0.31c-0.863-0.237-1.428-0.67-1.428-1.641c0-1.085,0.908-1.756,2.074-1.756
			c0.996,0,1.861,0.389,2.17,1.244l-0.751,0.301c-0.265-0.539-0.758-0.813-1.438-0.813c-0.601,0-1.209,0.291-1.209,0.953
			c0,0.477,0.345,0.775,1.006,0.961l1.157,0.318c0.74,0.194,1.348,0.644,1.348,1.686c0,1.102-0.936,1.861-2.293,1.861
			C168.688,38.185,167.719,37.673,167.418,36.658z"/>
	</g>
</g>
</svg>
