<?xml version="1.0" encoding="utf-8"?>
<!-- Generator: Adobe Illustrator 15.0.0, SVG Export Plug-In . SVG Version: 6.00 Build 0)  -->
<!DOCTYPE svg PUBLIC "-//W3C//DTD SVG 1.1//EN" "http://www.w3.org/Graphics/SVG/1.1/DTD/svg11.dtd">
<svg version="1.1" xmlns="http://www.w3.org/2000/svg" xmlns:xlink="http://www.w3.org/1999/xlink" x="0px" y="0px"
	 width="181.529px" height="61.619px" viewBox="0 0 181.529 61.619" enable-background="new 0 0 181.529 61.619"
	 xml:space="preserve">
<g id="Lag_1">
	<polyline fill="#FFFFFF" points="54.55,35.36 57.441,38.978 55.312,38.978 52.724,35.78 52.724,38.978 51.025,38.978 
		51.025,32.161 52.724,32.161 52.724,35.247 52.753,35.247 54.863,32.161 56.728,32.161 54.55,35.36 	"/>
	<path fill="#FFFFFF" d="M70.83,35.228c0.567-0.277,0.928-0.785,0.928-1.357c0-0.762-0.645-1.709-2.256-1.709h-2.959v6.816h3.32
		c1.993,0,2.413-1.216,2.413-1.996C72.276,36.18,71.797,35.481,70.83,35.228 M68.252,33.411v-0.079h0.928
		c0.654,0,0.918,0.391,0.918,0.762c0,0.377-0.264,0.778-0.918,0.778h-0.928V33.411 M69.258,37.812h-1.006v-1.689h1.25
		c0.625,0,1.084,0.283,1.084,0.804C70.586,37.547,70.244,37.812,69.258,37.812z"/>
	<polyline fill="#FFFFFF" points="78.496,38.978 73.545,38.978 73.545,32.161 78.428,32.161 78.428,33.411 75.254,33.411 
		75.254,34.836 78.281,34.836 78.281,36.086 75.254,36.086 75.254,37.728 78.496,37.728 78.496,38.978 	"/>
	<polyline fill="#FFFFFF" points="181.529,38.978 176.578,38.978 176.578,32.161 181.451,32.161 181.451,33.411 178.277,33.411 
		178.277,34.836 181.305,34.836 181.305,36.086 178.277,36.086 178.277,37.728 181.529,37.728 181.529,38.978 	"/>
	<polyline fill="#FFFFFF" points="95.049,38.978 93.35,38.978 93.35,36.219 90.186,36.219 90.186,38.978 88.487,38.978 
		88.487,32.161 90.186,32.161 90.186,34.901 93.35,34.901 93.35,32.161 95.049,32.161 95.049,38.978 	"/>
	<path fill="#FFFFFF" d="M103.518,38.978h-1.836l-0.557-1.348h-3.047l-0.519,1.348h-1.799l2.756-6.816h1.964L103.518,38.978
		 M99.523,33.788l-0.996,2.65h2.1L99.523,33.788z"/>
	<polyline fill="#FFFFFF" points="106.174,39.071 105.432,39.071 102.209,32.161 104.055,32.161 105.773,36.048 107.404,32.161 
		109.24,32.161 106.174,39.071 	"/>
	<polyline fill="#FFFFFF" points="116.594,38.978 115.168,38.978 111.477,34.608 111.477,38.978 109.768,38.978 109.768,32.161 
		111.33,32.161 114.895,36.331 114.895,32.161 116.594,32.161 116.594,38.978 	"/>
	<polyline fill="#FFFFFF" points="174.986,38.978 173.551,38.978 169.859,34.608 169.859,38.978 168.17,38.978 168.17,32.161 
		169.723,32.161 173.287,36.331 173.287,32.161 174.986,32.161 174.986,38.978 	"/>
	<polyline fill="#FFFFFF" points="86.905,38.978 85.479,38.978 81.788,34.608 81.788,38.978 80.089,38.978 80.089,32.161 
		81.651,32.161 85.206,36.331 85.206,32.161 86.905,32.161 86.905,38.978 	"/>
	<path fill="#FFFFFF" d="M122.746,33.929c-0.996-0.438-1.582-0.608-2.158-0.608c-0.615,0-1.162,0.296-1.162,0.638
		c0,1.032,3.633,0.664,3.633,3.043c0,1.31-1.104,2.071-2.627,2.071c-1.191,0-1.777-0.313-2.461-0.661v-1.468
		c0.986,0.647,1.582,0.879,2.334,0.879c0.654,0,0.996-0.231,0.996-0.631c0-1.123-3.467-0.713-3.467-3.159
		c0-1.181,1.016-1.962,2.598-1.962c0.762,0,1.455,0.16,2.314,0.531V33.929"/>
	<polyline fill="#FFFFFF" points="130.932,35.36 133.939,38.978 131.811,38.978 129.104,35.78 129.104,38.978 127.404,38.978 
		127.404,32.161 129.104,32.161 129.104,35.247 129.123,35.247 131.283,32.161 133.148,32.161 130.932,35.36 	"/>
	<path fill="#FFFFFF" d="M137.367,39.149c-2.5,0-3.916-1.797-3.916-3.541c0-1.65,1.348-3.539,3.916-3.539s3.896,1.898,3.896,3.539
		C141.264,37.356,139.818,39.149,137.367,39.149 M137.367,33.489c-1.299,0-2.158,0.869-2.158,2.119s0.859,2.119,2.158,2.119
		c1.289,0,2.148-0.869,2.148-2.119S138.656,33.489,137.367,33.489z"/>
	<polyline fill="#FFFFFF" points="148.314,32.161 149.604,32.161 149.604,38.978 147.904,38.978 147.904,34.72 146.059,36.858 
		145.805,36.858 143.959,34.72 143.959,38.978 142.26,38.978 142.26,32.161 143.549,32.161 145.932,34.964 148.314,32.161 	"/>
	<polyline fill="#FFFFFF" points="157.338,32.161 158.617,32.161 158.617,38.978 156.918,38.978 156.918,34.72 155.082,36.858 
		154.818,36.858 152.982,34.72 152.982,38.978 151.283,38.978 151.283,32.161 152.563,32.161 154.945,34.964 157.338,32.161 	"/>
	<path fill="#FFFFFF" d="M166.646,32.161v3.945c0,2.262-1.387,3.043-3.254,3.043c-1.982,0-3.252-0.918-3.252-3.033v-3.955h1.699v4
		c0,0.977,0.557,1.566,1.533,1.566c0.898,0,1.574-0.469,1.574-1.689v-3.877H166.646"/>
	<path fill="#FFFFFF" d="M65.351,32.854l-0.859-0.863l-0.801,0.707c-0.596-0.385-1.348-0.629-2.266-0.629
		c-2.579,0-3.916,1.889-3.916,3.539c0,0.703,0.234,1.416,0.673,2.018l-0.595,0.537l0.791,0.938l0.693-0.625
		c0.615,0.413,1.406,0.674,2.354,0.674c2.442,0,3.897-1.793,3.897-3.541c0-0.697-0.244-1.449-0.723-2.074L65.351,32.854
		 M59.257,35.608c0-1.25,0.859-2.119,2.168-2.119c0.41,0,0.781,0.094,1.093,0.26l-3.086,2.763
		C59.325,36.243,59.257,35.94,59.257,35.608 M63.574,35.608c0,1.25-0.86,2.119-2.149,2.119c-0.459,0-0.86-0.107-1.182-0.298
		l3.126-2.793C63.496,34.92,63.574,35.247,63.574,35.608z"/>
	<polyline fill="#FFFFFF" points="41.145,39.163 40.852,27.239 40.11,26.552 40.012,22.391 40.842,21.526 40.842,20.087 
		31.447,20.087 31.447,21.526 32.278,22.391 32.17,26.552 31.437,27.239 31.144,39.163 41.145,39.163 	"/>
	<path fill="#FFFFFF" d="M39.963,18.749v-1.445c0-2.35-1.728-4.004-3.828-4.004c-2.08,0-3.809,1.654-3.809,4.004v1.445H39.963"/>
	<polyline fill="#FFFFFF" points="1.699,39.163 2.012,27.239 2.744,26.552 2.842,22.391 2.012,21.526 2.012,20.087 11.416,20.087 
		11.416,21.526 10.576,22.391 10.683,26.552 11.426,27.239 11.719,39.163 1.699,39.163 	"/>
	<path fill="#FFFFFF" d="M2.891,18.749v-1.445c0-2.35,1.729-4.004,3.818-4.004c2.1,0,3.819,1.654,3.819,4.004v1.445H2.891"/>
	<polyline fill="#FFFFFF" points="6.709,6.298 6.064,8.368 3.955,7.89 5.43,9.485 3.955,11.077 6.064,10.599 6.709,12.675 
		7.354,10.599 9.473,11.083 8.008,9.485 9.473,7.89 7.354,8.368 6.709,6.298 	"/>
	<polyline fill="#FFFFFF" points="36.135,6.298 36.789,8.368 38.908,7.89 37.434,9.485 38.908,11.077 36.789,10.599 36.135,12.675 
		35.5,10.599 33.381,11.083 34.856,9.485 33.381,7.89 35.5,8.368 36.135,6.298 	"/>
	<path fill="#FFFFFF" d="M27.413,39.163l-0.4-14.854l0.781-0.849v-1.85H15.069v1.85l0.772,0.849l-0.41,14.854h3.691v-5.57
		c0-1.422,1.045-2.438,2.305-2.438c1.279,0,2.324,1.016,2.324,2.438v5.57H27.413"/>
	<polyline fill="#FFFFFF" points="26.505,20.335 26.407,17.001 27.179,16.259 27.179,13.798 24.845,13.798 24.845,15.921 
		22.55,15.921 22.55,13.827 20.294,13.827 20.294,15.921 18.009,15.921 18.009,13.798 15.675,13.798 15.675,16.259 16.446,17.001 
		16.349,20.335 26.505,20.335 	"/>
	<polyline fill="#FFFFFF" points="26.095,12.811 21.427,4.891 16.769,12.811 26.095,12.811 	"/>
	<g>
		<path fill="#FFFFFF" d="M19.571,2.259c-0.059-1.182,0.85-2.197,2.041-2.256c0.898-0.043,1.406,0.445,1.523,0.537
			c0.049,0.039,0.069,0.108,0.03,0.166c-0.03,0.049-0.108,0.059-0.166,0.03c-0.137-0.069-0.323-0.196-0.772-0.176
			c-0.869,0.049-1.533,0.777-1.484,1.64c0.039,0.86,0.771,1.534,1.631,1.485c0.449-0.03,0.635-0.176,0.761-0.248
			c0.059-0.039,0.127-0.039,0.176,0.019c0.03,0.043,0.03,0.112-0.019,0.16c-0.108,0.104-0.557,0.631-1.465,0.68
			C20.645,4.355,19.63,3.446,19.571,2.259"/>
	</g>
	<path fill="#FFFFFF" d="M21.417,61.619c4.014,0,7.022-2.896,7.852-5.836c0.42,3.102,3.409,4.107,5.928,2.74
		c1.407-0.768,2.754-2.09,3.672-4.023c0.049-0.088,0.049-0.201-0.039-0.25c-0.068-0.049-0.176-0.01-0.224,0.074
		c-0.684,0.977-1.495,1.787-2.432,2.07c-3.311,1.035-6.28-1.168-6.681-4.264c-0.019-0.121-0.078-0.186-0.176-0.195
		c-0.097,0-0.136,0.064-0.175,0.182c-0.801,3.09-3.848,5.762-7.725,5.762c-3.867,0-6.915-2.672-7.706-5.762
		c-0.039-0.117-0.088-0.182-0.186-0.182c-0.107,0.01-0.146,0.074-0.156,0.195c-0.42,3.096-3.388,5.299-6.699,4.264
		c-0.938-0.283-1.738-1.094-2.422-2.07c-0.059-0.084-0.166-0.123-0.225-0.074c-0.087,0.049-0.078,0.162-0.039,0.25
		c0.918,1.934,2.266,3.256,3.672,4.023c2.52,1.367,5.508,0.361,5.918-2.74C14.414,58.723,17.403,61.619,21.417,61.619"/>
	<g>
		<path fill="#FFFFFF" d="M21.417,47.288c-4.131,0-6.886-2.67-7.96-5.57c-1.67,5.947-9.228,7.084-11.846,2.979
			C0.625,43.153,0.186,40.95,0,38.899c0-0.088,0.039-0.199,0.137-0.219c0.068-0.02,0.156,0.059,0.185,0.166
			c0.674,2.602,1.963,3.451,3.604,4.057c3.965,1.436,8.554-0.547,9.404-4.961c0.02-0.127,0.059-0.199,0.156-0.199
			c0.098,0,0.147,0.072,0.166,0.189c0.674,3.027,3.976,5.508,7.765,5.508c3.809,0,7.109-2.48,7.783-5.508
			c0.02-0.117,0.059-0.189,0.156-0.189c0.108,0,0.147,0.072,0.176,0.199c0.83,4.414,5.431,6.396,9.396,4.961
			c1.64-0.605,2.929-1.455,3.603-4.057c0.03-0.107,0.108-0.186,0.186-0.166c0.098,0.02,0.137,0.131,0.127,0.219
			c-0.196,2.051-0.625,4.254-1.612,5.797c-2.607,4.105-10.167,2.969-11.836-2.979C28.312,44.618,25.567,47.288,21.417,47.288"/>
	</g>
	<path fill="#FFFFFF" d="M21.417,54.451c4.014,0,7.256-2.852,7.9-6.089c0.772,5.083,7.355,7.202,10.529,3.466
		c1.191-1.406,1.826-3.388,2.168-5.478c0.019-0.092-0.01-0.199-0.108-0.229c-0.078-0.02-0.166,0.049-0.195,0.146
		c-0.703,2.236-1.768,3.29-3.379,3.847c-4.248,1.465-8.116-1.474-8.8-5.142c-0.029-0.121-0.068-0.195-0.176-0.205
		c-0.097,0-0.156,0.059-0.166,0.186c-0.4,2.061-3.125,5.649-7.773,5.649c-4.629,0-7.364-3.589-7.745-5.649
		c-0.029-0.127-0.088-0.186-0.186-0.186c-0.097,0.01-0.136,0.084-0.156,0.205c-0.703,3.668-4.561,6.606-8.818,5.142
		c-1.602-0.557-2.666-1.61-3.369-3.847c-0.039-0.098-0.118-0.166-0.196-0.146c-0.097,0.029-0.136,0.137-0.117,0.229
		c0.342,2.09,0.986,4.071,2.178,5.478c3.164,3.736,9.756,1.617,10.517-3.466C14.18,51.6,17.403,54.451,21.417,54.451"/>
</g>
<g id="Layer_2">
	<g>
		<path fill="#FFFFFF" d="M54.915,20.885h-2.889v2.059h2.789v0.879h-2.789v2.119h2.979v0.879h-3.958v-6.816h3.868V20.885z"/>
		<path fill="#FFFFFF" d="M56.966,22.334h1.419v0.799h-1.419v2.299c0,0.53,0.38,0.68,0.64,0.68c0.32,0,0.65-0.11,1.01-0.33v0.83
			c-0.31,0.17-0.79,0.3-1.08,0.3c-0.969,0-1.459-0.6-1.459-1.409v-2.369h-0.78v-0.1l1.669-1.629V22.334z"/>
		<path fill="#FFFFFF" d="M65.334,23.503c-0.51-0.34-0.85-0.439-1.239-0.439c-0.81,0-1.369,0.609-1.369,1.519
			c0,0.93,0.6,1.489,1.519,1.489c0.38,0,0.74-0.1,1.189-0.3v0.879c-0.3,0.14-0.87,0.26-1.339,0.26c-1.339,0-2.279-0.929-2.279-2.249
			c0-1.479,0.86-2.419,2.219-2.419c0.52,0,0.87,0.12,1.299,0.31V23.503z"/>
		<path fill="#FFFFFF" d="M70.164,26.381c-0.54,0.36-1.029,0.53-1.789,0.53c-1.399,0-2.179-1.149-2.179-2.389
			c0-1.359,0.86-2.279,2.099-2.279c1.189,0,1.949,0.81,1.949,2.469h-3.158c0.14,0.89,0.649,1.349,1.509,1.349
			c0.54,0,1.049-0.2,1.569-0.54V26.381z M69.365,24.123c-0.03-0.679-0.42-1.109-1.049-1.109c-0.68,0-1.089,0.4-1.209,1.109H69.365z"
			/>
		<path fill="#FFFFFF" d="M72.076,22.923h0.02c0.34-0.43,0.84-0.68,1.339-0.68c0.85,0,1.529,0.58,1.529,1.809v2.769h-0.89v-2.778
			c0-0.66-0.34-1.089-0.879-1.089c-0.39,0-0.7,0.18-1.12,0.649v3.218h-0.889v-4.487h0.889V22.923z"/>
		<path fill="#FFFFFF" d="M77.246,22.334h1.419v0.799h-1.419v2.299c0,0.53,0.38,0.68,0.64,0.68c0.32,0,0.65-0.11,1.01-0.33v0.83
			c-0.31,0.17-0.79,0.3-1.08,0.3c-0.969,0-1.459-0.6-1.459-1.409v-2.369h-0.78v-0.1l1.669-1.629V22.334z"/>
		<path fill="#FFFFFF" d="M83.284,26.381c-0.54,0.36-1.029,0.53-1.789,0.53c-1.399,0-2.179-1.149-2.179-2.389
			c0-1.359,0.86-2.279,2.099-2.279c1.189,0,1.949,0.81,1.949,2.469h-3.158c0.14,0.89,0.649,1.349,1.509,1.349
			c0.54,0,1.049-0.2,1.569-0.54V26.381z M82.485,24.123c-0.03-0.679-0.42-1.109-1.049-1.109c-0.68,0-1.089,0.4-1.209,1.109H82.485z"
			/>
		<path fill="#FFFFFF" d="M85.276,22.334v1.029h0.02c0.45-0.79,0.879-1.12,1.299-1.12c0.36,0,0.7,0.17,1.069,0.52l-0.47,0.77
			c-0.27-0.26-0.62-0.44-0.83-0.44c-0.609,0-1.089,0.61-1.089,1.379v2.349h-0.89v-4.487H85.276z"/>
		<path fill="#FFFFFF" d="M91.537,21.504c-0.291,0-0.531-0.24-0.531-0.53c0-0.29,0.24-0.53,0.531-0.53
			c0.289,0,0.529,0.24,0.529,0.53C92.066,21.264,91.826,21.504,91.537,21.504z M91.977,26.821h-0.891v-4.487h0.891V26.821z"/>
	</g>
</g>
</svg>
